<?xml version="1.0" encoding="UTF-8"?>
<svg width="400px" height="189px" viewBox="0 0 400 189" version="1.1" xmlns="http://www.w3.org/2000/svg" xmlns:xlink="http://www.w3.org/1999/xlink">
    <title>gasd_1_weesp_rbg</title>
    <g id="gasd_1_weesp_rbg" stroke="none" stroke-width="1" fill="none" fill-rule="evenodd">
        <g id="Group" transform="translate(0.000000, 0.114000)">
            <path d="M76.9145976,132.055433 L85.2518615,132.055433 L93.2870505,162.867061 L93.4078804,162.867061 L103.013858,132.055433 L110.505313,132.055433 L119.930046,162.867061 L120.050876,162.867061 L128.448555,132.055433 L136.181669,132.055433 L123.736188,174.829222 L116.486393,174.829222 L106.578341,142.265561 L106.457511,142.265561 L96.5494581,174.829222 L89.5413233,174.829222 L76.9145976,132.055433 M159.320597,157.429715 C159.28032,155.295583 158.615226,153.614033 157.326903,152.385066 C156.037521,151.157158 154.24574,150.54241 151.949972,150.54241 C149.775034,150.54241 148.053208,151.167757 146.784493,152.415273 C145.515779,153.664379 144.739924,155.335859 144.458518,157.429715 L159.320597,157.429715 Z M144.458518,162.867061 C144.700178,165.041999 145.545987,166.733618 146.995946,167.941917 C148.445905,169.150216 150.197938,169.754366 152.252047,169.754366 C154.064496,169.754366 155.584409,169.382867 156.813376,168.636689 C158.041284,167.891571 159.118684,166.955669 160.045576,165.827393 L165.241792,169.754366 C163.549114,171.849281 161.656112,173.339516 159.562257,174.225072 C157.467341,175.110628 155.272795,175.554201 152.977026,175.554201 C150.802088,175.554201 148.74798,175.191711 146.814701,174.466732 C144.881422,173.741753 143.209412,172.714698 141.80026,171.385569 C140.390047,170.05644 139.272371,168.455444 138.44723,166.58258 C137.621559,164.709717 137.208723,162.625401 137.208723,160.329632 C137.208723,158.033864 137.621559,155.949548 138.44723,154.076685 C139.272371,152.203821 140.390047,150.602825 141.80026,149.273696 C143.209412,147.944567 144.881422,146.917512 146.814701,146.192533 C148.74798,145.467553 150.802088,145.105064 152.977026,145.105064 C154.990328,145.105064 156.833514,145.458014 158.504995,146.162325 C160.175945,146.867167 161.605766,147.884152 162.794987,149.213281 C163.982087,150.54241 164.90951,152.184213 165.574075,154.1371 C166.238639,156.091576 166.570921,158.335939 166.570921,160.873367 L166.570921,162.867061 L144.458518,162.867061 L144.458518,162.867061 Z M193.454517,157.429715 C193.41371,155.295583 192.749145,153.614033 191.460293,152.385066 C190.171441,151.157158 188.37966,150.54241 186.083892,150.54241 C183.908424,150.54241 182.186597,151.167757 180.918413,152.415273 C179.649699,153.664379 178.873314,155.335859 178.592438,157.429715 L193.454517,157.429715 Z M178.592438,162.867061 C178.834097,165.041999 179.679907,166.733618 181.129866,167.941917 C182.579825,169.150216 184.331858,169.754366 186.385967,169.754366 C188.198415,169.754366 189.717799,169.382867 190.947296,168.636689 C192.175203,167.891571 193.252073,166.955669 194.179496,165.827393 L199.375182,169.754366 C197.683563,171.849281 195.789502,173.339516 193.696176,174.225072 C191.601261,175.110628 189.406185,175.554201 187.110416,175.554201 C184.936008,175.554201 182.881899,175.191711 180.948091,174.466732 C179.015342,173.741753 177.343862,172.714698 175.934179,171.385569 C174.523437,170.05644 173.406291,168.455444 172.58062,166.58258 C171.754948,164.709717 171.342113,162.625401 171.342113,160.329632 C171.342113,158.033864 171.754948,155.949548 172.58062,154.076685 C173.406291,152.203821 174.523437,150.602825 175.934179,149.273696 C177.343862,147.944567 179.015342,146.917512 180.948091,146.192533 C182.881899,145.467553 184.936008,145.105064 187.110416,145.105064 C189.124248,145.105064 190.967434,145.458014 192.638915,146.162325 C194.309335,146.867167 195.740216,147.884152 196.928376,149.213281 C198.116007,150.54241 199.0429,152.184213 199.707464,154.1371 C200.372029,156.091576 200.704311,158.335939 200.704311,160.873367 L200.704311,162.867061 L178.592438,162.867061 L178.592438,162.867061 Z M222.39275,153.865232 C220.982008,151.892207 219.089536,150.904899 216.713744,150.904899 C215.747105,150.904899 214.800074,151.146559 213.874242,151.629879 C212.947349,152.113199 212.484698,152.898593 212.484698,153.986062 C212.484698,154.872678 212.866796,155.517634 213.632582,155.919341 C214.397308,156.322107 215.363947,156.665518 216.5325,156.946395 C217.699992,157.228861 218.958637,157.520337 220.308434,157.822412 C221.657702,158.124487 222.915817,158.588198 224.084369,159.211956 C225.251861,159.836774 226.218501,160.692122 226.984287,161.779591 C227.749013,162.867061 228.132171,164.357296 228.132171,166.250298 C228.132171,167.982723 227.759612,169.442752 227.014494,170.630382 C226.268847,171.818543 225.302207,172.775113 224.114576,173.500093 C222.925886,174.225072 221.586688,174.749198 220.096982,175.070882 C218.606216,175.392565 217.115981,175.554201 215.626275,175.554201 C213.370254,175.554201 211.296007,175.231458 209.403535,174.587562 C207.510003,173.943666 205.818384,172.775113 204.328679,171.083495 L209.161875,166.552373 C210.088238,167.600095 211.085084,168.455444 212.152415,169.120008 C213.219216,169.784573 214.518138,170.116855 216.04918,170.116855 C216.572246,170.116855 217.115981,170.05644 217.680384,169.93561 C218.243727,169.81478 218.767853,169.613397 219.251173,169.331461 C219.734492,169.050054 220.127189,168.697104 220.429264,168.274199 C220.731339,167.851294 220.882376,167.358436 220.882376,166.794033 C220.882376,165.787647 220.499218,165.041999 219.734492,164.558679 C218.969236,164.07536 218.002067,163.682662 216.834574,163.380588 C215.666022,163.078513 214.407377,162.797106 213.05864,162.534778 C211.708312,162.27351 210.450197,161.850605 209.282705,161.266064 C208.114152,160.683113 207.147513,159.867511 206.382787,158.819259 C205.617001,157.772066 205.234903,156.322107 205.234903,154.469382 C205.234903,152.858846 205.567185,151.458703 206.23175,150.270542 C206.896314,149.082912 207.772331,148.105673 208.8598,147.340417 C209.947269,146.576221 211.195315,146.011288 212.605527,145.648798 C214.01468,145.286309 215.44503,145.105064 216.894989,145.105064 C218.828268,145.105064 220.740348,145.437346 222.63441,146.10191 C224.527412,146.766475 226.057394,147.90482 227.225947,149.515355 L222.39275,153.865232 M257.25112,160.329632 C257.25112,159.202947 257.059806,158.114947 256.677177,157.067225 C256.293489,156.020562 255.730676,155.0942 254.985559,154.288137 C254.239381,153.483134 253.343756,152.838178 252.297093,152.354858 C251.249371,151.871539 250.06174,151.629879 248.732611,151.629879 C247.403482,151.629879 246.215321,151.871539 245.168128,152.354858 C244.120406,152.838178 243.224251,153.483134 242.479663,154.288137 C241.734015,155.0942 241.170142,156.020562 240.787514,157.067225 C240.404886,158.114947 240.213572,159.202947 240.213572,160.329632 C240.213572,161.457908 240.404886,162.544848 240.787514,163.59204 C241.170142,164.639763 241.734015,165.566125 242.479663,166.371128 C243.224251,167.177721 244.120406,167.821087 245.168128,168.304407 C246.215321,168.787726 247.403482,169.029386 248.732611,169.029386 C250.06174,169.029386 251.249371,168.787726 252.297093,168.304407 C253.343756,167.821087 254.239381,167.177721 254.985559,166.371128 C255.730676,165.566125 256.293489,164.639763 256.677177,163.59204 C257.059806,162.544848 257.25112,161.457908 257.25112,160.329632 Z M233.205967,145.830043 L240.093272,145.830043 L240.093272,150.17992 L240.213572,150.17992 C241.260765,148.408278 242.669917,147.119426 244.443149,146.313363 C246.215321,145.50836 248.128461,145.105064 250.18257,145.105064 C252.397255,145.105064 254.390418,145.497761 256.16365,146.283155 C257.935292,147.06855 259.446196,148.14648 260.694772,149.515355 C261.942288,150.884761 262.889849,152.496357 263.534275,154.348552 C264.177641,156.201807 264.500914,158.194971 264.500914,160.329632 C264.500914,162.464824 264.158033,164.459048 263.47386,166.310713 C262.788627,168.163968 261.832057,169.775034 260.60415,171.143909 C259.375182,172.513845 257.895016,173.590715 256.16365,174.37611 C254.431755,175.161504 252.538753,175.554201 250.484645,175.554201 C249.114709,175.554201 247.90641,175.412703 246.859747,175.131297 C245.812025,174.84883 244.885662,174.4874 244.080659,174.043827 C243.274597,173.601314 242.589894,173.128064 242.026551,172.624076 C241.462148,172.121148 240.999497,171.627229 240.637007,171.143909 L240.455762,171.143909 L240.455762,188.603832 L233.205967,188.603832 L233.205967,145.830043 L233.205967,145.830043 Z" id="Combined-Shape" fill="#000000"></path>
            <path d="M105.361562,95.1705133 L98.7763322,77.7704762 L92.0702721,95.1705133 L105.361562,95.1705133 Z M95.6951695,68.7082329 L102.2804,68.7082329 L120.706431,111.482021 L112.007207,111.482021 L108.01982,101.694798 L89.4724291,101.694798 L85.6058719,111.482021 L77.0873632,111.482021 L95.6951695,68.7082329 L95.6951695,68.7082329 Z M124.512573,82.4828427 L131.399348,82.4828427 L131.399348,87.0139643 L131.520178,87.0139643 C132.788892,84.2952913 135.56798,81.7578632 140.401177,81.7578632 C144.871883,81.7578632 147.953046,83.5098969 149.46342,87.1347942 C151.577943,83.449482 154.658576,81.7578632 159.008983,81.7578632 C166.741567,81.7578632 169.46024,87.2561541 169.46024,94.2028141 L169.46024,111.482021 L162.210445,111.482021 L162.210445,95.0491534 C162.210445,91.4237261 161.123506,88.2826784 156.834044,88.2826784 C152.302923,88.2826784 150.611304,92.0284056 150.611304,95.7736029 L150.611304,111.482021 L143.361509,111.482021 L143.361509,94.2028141 C143.361509,90.6393916 141.91155,88.2826784 138.407483,88.2826784 C133.634702,88.2826784 131.761838,91.7872758 131.761838,95.6538329 L131.761838,111.482021 L124.512573,111.482021 L124.512573,82.4828427 M192.841358,90.5175018 C191.451814,88.5852831 189.639365,87.557169 187.162352,87.557169 C185.229073,87.557169 182.933305,88.4639233 182.933305,90.6393916 C182.933305,95.8345478 198.580779,91.604971 198.580779,102.903098 C198.580779,109.789873 191.995548,112.206471 186.074883,112.206471 C181.604176,112.206471 177.737619,111.059117 174.777286,107.735234 L179.610483,103.205172 C181.483346,105.259281 183.416625,106.769655 186.497787,106.769655 C188.612311,106.769655 191.330984,105.7426 191.330984,103.446832 C191.330984,97.4657516 175.68351,102.178118 175.68351,91.1227113 C175.68351,84.6577811 181.483346,81.7578632 187.343597,81.7578632 C191.210154,81.7578632 195.318371,82.9661623 197.674554,86.168155 L192.841358,90.5175018 M200.815602,88.6451681 L200.815602,82.4828427 L206.796682,82.4828427 L206.796682,74.0851639 L214.046477,74.0851639 L214.046477,82.4828427 L222.020721,82.4828427 L222.020721,88.6451681 L214.046477,88.6451681 L214.046477,101.332309 C214.046477,104.232227 214.891757,106.044145 218.093749,106.044145 C219.362463,106.044145 221.114497,105.802485 222.020721,105.137921 L222.020721,111.239831 C220.510347,111.965341 217.972919,112.206471 216.281301,112.206471 C208.609131,112.206471 206.796682,108.763348 206.796682,101.935928 L206.796682,88.6451681 L200.815602,88.6451681 M248.361112,94.0819842 C248.300167,89.8529373 245.521609,87.1952092 240.990487,87.1952092 C236.701025,87.1952092 234.042767,89.9138822 233.499033,94.0819842 L248.361112,94.0819842 Z M233.499033,99.52039 C233.982352,103.808792 237.24476,106.406635 241.292562,106.406635 C244.916929,106.406635 247.273643,104.715546 249.086091,102.479663 L254.281248,106.406635 C250.89854,110.575797 246.609078,112.206471 242.017542,112.206471 C233.257903,112.206471 226.249238,106.10509 226.249238,96.981902 C226.249238,87.8597737 233.257903,81.7578632 242.017542,81.7578632 C250.112616,81.7578632 255.610377,87.437399 255.610377,97.5261666 L255.610377,99.52039 L233.499033,99.52039 L233.499033,99.52039 Z M262.377381,82.4828427 L269.626646,82.4828427 L269.626646,87.0743793 L269.748006,87.0743793 C271.318795,83.7515567 274.520788,81.7578632 278.3264,81.7578632 C279.232624,81.7578632 280.078433,81.9391081 280.924243,82.1807679 L280.924243,89.1883728 C279.716474,88.886298 278.56859,88.6451681 277.420705,88.6451681 C270.593815,88.6451681 269.626646,94.3840589 269.626646,95.9553777 L269.626646,111.482021 L262.377381,111.482021 L262.377381,82.4828427 M299.169029,105.681656 C304.485545,105.681656 307.687538,101.513554 307.687538,96.981902 C307.687538,92.4518403 304.485545,88.2826784 299.169029,88.2826784 C293.851983,88.2826784 290.649991,92.4518403 290.649991,96.981902 C290.649991,101.513554 293.851983,105.681656 299.169029,105.681656 Z M307.807838,107.132144 L307.687538,107.132144 C305.573015,110.636212 301.766872,112.206471 297.718541,112.206471 C288.777657,112.206471 283.400726,105.561356 283.400726,96.981902 C283.400726,88.4035083 289.140147,81.7578632 297.416996,81.7578632 C302.854342,81.7578632 305.75373,84.2952913 307.264103,86.168155 L307.445878,86.168155 L307.445878,65.808845 L314.695143,65.808845 L314.695143,111.482021 L307.807838,111.482021 L307.807838,107.132144 L307.807838,107.132144 Z M340.613159,98.4922759 L339.102785,98.4922759 C335.115398,98.4922759 328.228623,98.7943507 328.228623,102.962983 C328.228623,105.621241 330.946766,106.769655 333.302949,106.769655 C338.256446,106.769655 340.613159,104.171282 340.613159,100.12348 L340.613159,98.4922759 Z M341.036063,107.494104 L340.854819,107.494104 C338.80071,110.757042 335.417473,112.206471 331.550915,112.206471 C326.174514,112.206471 320.978298,109.246668 320.978298,103.507247 C320.978298,94.0819842 331.97382,93.4174196 339.223615,93.4174196 L341.036063,93.4174196 L341.036063,92.6325552 C341.036063,89.0680728 338.256446,87.1952092 334.390418,87.1952092 C331.369671,87.1952092 328.590583,88.4035083 326.657304,90.215957 L322.851162,86.4098148 C326.053155,83.1474072 330.584276,81.7578632 335.175813,81.7578632 C347.560879,81.7578632 347.560879,90.6987467 347.560879,94.8074936 L347.560879,111.482021 L341.036063,111.482021 L341.036063,107.494104 L341.036063,107.494104 Z M355.051803,82.4828427 L361.939108,82.4828427 L361.939108,87.0139643 L362.059408,87.0139643 C363.328652,84.2952913 366.10774,81.7578632 370.940406,81.7578632 C375.411643,81.7578632 378.492276,83.5098969 380.00318,87.1347942 C382.117173,83.449482 385.198866,81.7578632 389.548743,81.7578632 C397.281327,81.7578632 400,87.2561541 400,94.2028141 L400,111.482021 L392.750735,111.482021 L392.750735,95.0491534 C392.750735,91.4237261 391.662736,88.2826784 387.373274,88.2826784 C382.842153,88.2826784 381.151064,92.0284056 381.151064,95.7736029 L381.151064,111.482021 L373.900739,111.482021 L373.900739,94.2028141 C373.900739,90.6393916 372.45131,88.2826784 368.947243,88.2826784 C364.174461,88.2826784 362.301598,91.7872758 362.301598,95.6538329 L362.301598,111.482021 L355.051803,111.482021 L355.051803,82.4828427 M119.860622,44.7234956 C114.665465,47.5025835 108.7448,48.9525425 102.15957,48.9525425 C88.9891094,48.9525425 79.5643764,40.0111291 79.5643764,26.6594239 C79.5643764,12.945759 88.9891094,4.00434564 102.15957,4.00434564 C108.684385,4.00434564 114.544636,5.39388961 119.014812,9.38127666 L113.396751,15.0597525 C110.678078,12.4020244 106.509446,10.8916505 102.219985,10.8916505 C93.3994012,10.8916505 87.5391505,17.6581255 87.5391505,26.1766343 C87.5391505,35.2987626 93.3994012,42.0652376 102.219985,42.0652376 C106.086542,42.0652376 109.590609,41.3402581 112.248867,39.8298842 L112.248867,29.7405867 L103.488699,29.7405867 L103.488699,22.8538117 L119.860622,22.8538117 L119.860622,44.7234956 M148.86033,30.4655661 C148.799915,26.2365193 146.020827,23.5787912 141.489706,23.5787912 C137.200244,23.5787912 134.541986,26.2974642 133.998251,30.4655661 L148.86033,30.4655661 Z M133.998251,35.9029121 C134.481571,40.1923739 137.743978,42.790217 141.79178,42.790217 C145.416678,42.790217 147.772861,41.0985983 149.58531,38.8632449 L154.780466,42.790217 C151.397758,46.9588489 147.108296,48.5900527 142.51676,48.5900527 C133.756591,48.5900527 126.748457,42.4881422 126.748457,33.365484 C126.748457,24.2433557 133.756591,18.1409152 142.51676,18.1409152 C150.612364,18.1409152 156.109595,23.819921 156.109595,33.9092186 L156.109595,35.9029121 L133.998251,35.9029121 L133.998251,35.9029121 Z M162.574525,18.8664247 L169.4613,18.8664247 L169.4613,23.3970163 L169.58213,23.3970163 C170.850844,20.6783434 173.629932,18.1409152 178.463128,18.1409152 C182.933835,18.1409152 186.014998,19.8934789 187.525372,23.5178463 C189.639895,19.8330639 192.720528,18.1409152 197.070405,18.1409152 C204.803519,18.1409152 207.522192,23.6392061 207.522192,30.586396 L207.522192,47.8650733 L200.272397,47.8650733 L200.272397,31.4327354 C200.272397,27.8073081 199.185458,24.6657304 194.895996,24.6657304 C190.364875,24.6657304 188.673256,28.4114576 188.673256,32.1571849 L188.673256,47.8650733 L181.423461,47.8650733 L181.423461,30.586396 C181.423461,27.0219137 179.973502,24.6657304 176.469435,24.6657304 C171.696653,24.6657304 169.82379,28.1697978 169.82379,32.036355 L169.82379,47.8650733 L162.574525,47.8650733 L162.574525,18.8664247 M236.098466,30.4655661 C236.038051,26.2365193 233.258963,23.5787912 228.728371,23.5787912 C224.438379,23.5787912 221.780121,26.2974642 221.236387,30.4655661 L236.098466,30.4655661 Z M221.236387,35.9029121 C221.719706,40.1923739 224.982114,42.790217 229.029916,42.790217 C232.654813,42.790217 235.010997,41.0985983 236.823445,38.8632449 L242.019131,42.790217 C238.635894,46.9588489 234.346432,48.5900527 229.754895,48.5900527 C220.995257,48.5900527 213.986592,42.4881422 213.986592,33.365484 C213.986592,24.2433557 220.995257,18.1409152 229.754895,18.1409152 C237.850499,18.1409152 243.34826,23.819921 243.34826,33.9092186 L243.34826,35.9029121 L221.236387,35.9029121 L221.236387,35.9029121 Z M270.77559,30.4655661 C270.715175,26.2365193 267.936617,23.5787912 263.404966,23.5787912 C259.115504,23.5787912 256.457776,26.2974642 255.913511,30.4655661 L270.77559,30.4655661 Z M255.913511,35.9029121 C256.397361,40.1923739 259.659768,42.790217 263.70757,42.790217 C267.331938,42.790217 269.688651,41.0985983 271.5011,38.8632449 L276.696256,42.790217 C273.313548,46.9588489 269.024086,48.5900527 264.43255,48.5900527 C255.671851,48.5900527 248.664247,42.4881422 248.664247,33.365484 C248.664247,24.2433557 255.671851,18.1409152 264.43255,18.1409152 C272.527624,18.1409152 278.025385,23.819921 278.025385,33.9092186 L278.025385,35.9029121 L255.913511,35.9029121 L255.913511,35.9029121 Z M284.79239,18.8664247 L291.679695,18.8664247 L291.679695,23.5178463 L291.799995,23.5178463 C293.129124,20.6184584 295.847797,18.1409152 300.680993,18.1409152 C308.474522,18.1409152 311.25361,23.6392061 311.25361,29.5593418 L311.25361,47.8650733 L304.003816,47.8650733 L304.003816,33.1842391 C304.003816,29.9822465 303.762686,24.6657304 298.6873,24.6657304 C293.915048,24.6657304 292.041655,28.1697978 292.041655,32.036355 L292.041655,47.8650733 L284.79239,47.8650733 L284.79239,18.8664247 M316.086277,25.0282201 L316.086277,18.8664247 L322.067887,18.8664247 L322.067887,10.4687459 L329.317152,10.4687459 L329.317152,18.8664247 L337.291926,18.8664247 L337.291926,25.0282201 L329.317152,25.0282201 L329.317152,37.7153608 C329.317152,40.6152786 330.162961,42.4277273 333.364954,42.4277273 C334.633668,42.4277273 336.385702,42.1860675 337.291926,41.521503 L337.291926,47.6234134 C335.781552,48.3483929 333.243594,48.5900527 331.552505,48.5900527 C323.880336,48.5900527 322.067887,45.1464003 322.067887,38.3195103 L322.067887,25.0282201 L316.086277,25.0282201 M363.631787,30.4655661 C363.571372,26.2365193 360.792814,23.5787912 356.261162,23.5787912 C351.9717,23.5787912 349.313972,26.2974642 348.769708,30.4655661 L363.631787,30.4655661 Z M348.769708,35.9029121 C349.253027,40.1923739 352.515965,42.790217 356.563237,42.790217 C360.188134,42.790217 362.544848,41.0985983 364.356766,38.8632449 L369.552452,42.790217 C366.169215,46.9588489 361.880283,48.5900527 357.288746,48.5900527 C348.528048,48.5900527 341.520443,42.4881422 341.520443,33.365484 C341.520443,24.2433557 348.528048,18.1409152 357.288746,18.1409152 C365.38382,18.1409152 370.881581,23.819921 370.881581,33.9092186 L370.881581,35.9029121 L348.769708,35.9029121 L348.769708,35.9029121 Z" id="Combined-Shape" fill="#EC0101"></path>
            <path d="M0,169.686531 L15.8970826,153.788919 L0,137.889716 L10.599115,127.290601 L26.4977874,143.189274 L42.3964599,127.290601 L52.9955749,137.889716 L37.0969024,153.788919 L52.9955749,169.686531 L42.3964599,180.285646 L26.4977874,164.388034 L10.599115,180.285646 L0,169.686531 M0.00158986725,106.096611 L15.9002623,90.1984684 L0.00158986725,74.299266 L10.6012348,63.6996211 L26.4993773,79.5988235 L42.3980498,63.6996211 L52.9971647,74.299266 L37.0990222,90.1984684 L52.9971647,106.096611 L42.3980498,116.695726 L26.4993773,100.797583 L10.6012348,116.695726 L0.00158986725,106.096611 M0.00158986725,42.3969899 L15.9002623,26.4977874 L0.00158986725,10.5980551 L10.599115,0 L26.4993773,15.8986725 L42.3980498,0 L52.9971647,10.5980551 L37.0969024,26.4977874 L52.9971647,42.3969899 L42.3980498,52.9955749 L26.4993773,37.0963725 L10.6022947,52.9955749 L0.00158986725,42.3969899" id="Combined-Shape" fill="#EC0101"></path>
        </g>
    </g>
</svg>